<svg xmlns="http://www.w3.org/2000/svg" xmlns:xlink="http://www.w3.org/1999/xlink" version="1.2" width="177.80mm" height="28.12mm" viewBox="0 0 101.1780 16.0000">
<!-- Page: 1/1 -->
<text transform="translate(1.1381, -0.0000)" font-family="Century Schoolbook L" font-size="2.2001" text-anchor="start" fill="currentColor">
<tspan>
 </tspan>
</text>
<text transform="translate(34.2655, 6.0500)" font-family="Century Schoolbook L" font-size="2.4696" text-anchor="start" fill="currentColor">
<tspan>
es</tspan>
</text>
<path transform="translate(34.7853, 2.0500) scale(0.0040, -0.0040)" d="M165 36l120 98c3 2 6 4 9 4s7 -2 10 -4l20 -16c3 -3 5 -8 5 -12s-2 -8 -5 -11l-116 -95l116 -95c3 -3 5 -7 5 -11s-2 -9 -5 -12l-20 -16c-3 -2 -7 -4 -10 -4s-6 2 -9 4l-120 98l-121 -98c-3 -2 -6 -4 -9 -4s-7 2 -10 4l-20 16c-3 3 -5 8 -5 12s2 8 5 11l116 95l-116 95
c-3 3 -5 7 -5 11s2 9 5 12l20 16c3 2 7 4 10 4s6 -2 9 -4z" fill="currentColor"/>
<text transform="translate(28.9943, 6.0500)" font-family="Century Schoolbook L" font-size="2.4696" text-anchor="start" fill="currentColor">
<tspan>
ag</tspan>
</text>
<path transform="translate(29.4853, 2.0500) scale(0.0040, -0.0040)" d="M10 -263c-6 0 -10 6 -10 11c0 2 0 3 1 5l309 505c2 3 6 5 9 5h100c6 0 10 -6 10 -11c0 -2 -1 -3 -2 -5l-308 -505c-2 -3 -6 -5 -9 -5h-100z" fill="currentColor"/>
<text transform="translate(23.6996, 6.0500)" font-family="Century Schoolbook L" font-size="2.4696" text-anchor="start" fill="currentColor">
<tspan>
in</tspan>
</text>
<path transform="translate(24.1853, 2.0500) scale(0.0040, -0.0040)" d="M165 36l120 98c3 2 6 4 9 4s7 -2 10 -4l20 -16c3 -3 5 -8 5 -12s-2 -8 -5 -11l-116 -95l116 -95c3 -3 5 -7 5 -11s-2 -9 -5 -12l-20 -16c-3 -2 -7 -4 -10 -4s-6 2 -9 4l-120 98l-121 -98c-3 -2 -6 -4 -9 -4s-7 2 -10 4l-20 16c-3 3 -5 8 -5 12s2 8 5 11l116 95l-116 95
c-3 3 -5 7 -5 11s2 9 5 12l20 16c3 2 7 4 10 4s6 -2 9 -4z" fill="currentColor"/>
<rect transform="translate(32.6486, 6.0500)" x="0.0000" y="-0.5500" width="0.6600" height="0.1300" ry="0.0400" fill="currentColor"/>
<text transform="translate(38.5017, 6.0500)" font-family="Century Schoolbook L" font-size="2.4696" text-anchor="start" fill="currentColor">
<tspan>
past</tspan>
</text>
<path transform="translate(40.0853, 2.0500) scale(0.0040, -0.0040)" d="M10 -263c-6 0 -10 6 -10 11c0 2 0 3 1 5l309 505c2 3 6 5 9 5h100c6 0 10 -6 10 -11c0 -2 -1 -3 -2 -5l-308 -505c-2 -3 -6 -5 -9 -5h-100z" fill="currentColor"/>
<text transform="translate(5.1667, 6.0500)" font-family="Century Schoolbook L" font-size="2.4696" text-anchor="start" fill="currentColor">
<tspan>
God,</tspan>
</text>
<path transform="translate(6.9381, 2.0500) scale(0.0040, -0.0040)" d="M10 -263c-6 0 -10 6 -10 11c0 2 0 3 1 5l309 505c2 3 6 5 9 5h100c6 0 10 -6 10 -11c0 -2 -1 -3 -2 -5l-308 -505c-2 -3 -6 -5 -9 -5h-100z" fill="currentColor"/>
<text transform="translate(1.3402, 6.0500)" font-family="Century Schoolbook L" font-size="2.4696" text-anchor="start" fill="currentColor">
<tspan>
O</tspan>
</text>
<path transform="translate(1.6381, 2.0500) scale(0.0040, -0.0040)" d="M165 36l120 98c3 2 6 4 9 4s7 -2 10 -4l20 -16c3 -3 5 -8 5 -12s-2 -8 -5 -11l-116 -95l116 -95c3 -3 5 -7 5 -11s-2 -9 -5 -12l-20 -16c-3 -2 -7 -4 -10 -4s-6 2 -9 4l-120 98l-121 -98c-3 -2 -6 -4 -9 -4s-7 2 -10 4l-20 16c-3 3 -5 8 -5 12s2 8 5 11l116 95l-116 95
c-3 3 -5 7 -5 11s2 9 5 12l20 16c3 2 7 4 10 4s6 -2 9 -4z" fill="currentColor"/>
<path transform="translate(13.1787, 2.0500) scale(0.0040, -0.0040)" d="M165 36l120 98c3 2 6 4 9 4s7 -2 10 -4l20 -16c3 -3 5 -8 5 -12s-2 -8 -5 -11l-116 -95l116 -95c3 -3 5 -7 5 -11s-2 -9 -5 -12l-20 -16c-3 -2 -7 -4 -10 -4s-6 2 -9 4l-120 98l-121 -98c-3 -2 -6 -4 -9 -4s-7 2 -10 4l-20 16c-3 3 -5 8 -5 12s2 8 5 11l116 95l-116 95
c-3 3 -5 7 -5 11s2 9 5 12l20 16c3 2 7 4 10 4s6 -2 9 -4z" fill="currentColor"/>
<text transform="translate(11.9248, 6.0500)" font-family="Century Schoolbook L" font-size="2.4696" text-anchor="start" fill="currentColor">
<tspan>
our</tspan>
</text>
<path transform="translate(18.8666, 2.0500) scale(0.0040, -0.0040)" d="M10 -263c-6 0 -10 6 -10 11c0 2 0 3 1 5l309 505c2 3 6 5 9 5h100c6 0 10 -6 10 -11c0 -2 -1 -3 -2 -5l-308 -505c-2 -3 -6 -5 -9 -5h-100z" fill="currentColor"/>
<text transform="translate(17.2488, 6.0500)" font-family="Century Schoolbook L" font-size="2.4696" text-anchor="start" fill="currentColor">
<tspan>
help</tspan>
</text>
<path transform="translate(20.6912, 10.0500) scale(0.0040, -0.0040)" d="M10 -263c-6 0 -10 6 -10 11c0 2 0 3 1 5l309 505c2 3 6 5 9 5h100c6 0 10 -6 10 -11c0 -2 -1 -3 -2 -5l-308 -505c-2 -3 -6 -5 -9 -5h-100z" fill="currentColor"/>
<text transform="translate(18.4760, 14.0500)" font-family="Century Schoolbook L" font-size="2.4696" text-anchor="start" fill="currentColor">
<tspan>
years</tspan>
</text>
<path transform="translate(26.5563, 10.0500) scale(0.0040, -0.0040)" d="M165 36l120 98c3 2 6 4 9 4s7 -2 10 -4l20 -16c3 -3 5 -8 5 -12s-2 -8 -5 -11l-116 -95l116 -95c3 -3 5 -7 5 -11s-2 -9 -5 -12l-20 -16c-3 -2 -7 -4 -10 -4s-6 2 -9 4l-120 98l-121 -98c-3 -2 -6 -4 -9 -4s-7 2 -10 4l-20 16c-3 3 -5 8 -5 12s2 8 5 11l116 95l-116 95
c-3 3 -5 7 -5 11s2 9 5 12l20 16c3 2 7 4 10 4s6 -2 9 -4z" fill="currentColor"/>
<text transform="translate(26.1218, 14.0500)" font-family="Century Schoolbook L" font-size="2.4696" text-anchor="start" fill="currentColor">
<tspan>
to</tspan>
</text>
<path transform="translate(31.8563, 10.0500) scale(0.0040, -0.0040)" d="M10 -263c-6 0 -10 6 -10 11c0 2 0 3 1 5l309 505c2 3 6 5 9 5h100c6 0 10 -6 10 -11c0 -2 -1 -3 -2 -5l-308 -505c-2 -3 -6 -5 -9 -5h-100z" fill="currentColor"/>
<text transform="translate(29.8459, 14.0500)" font-family="Century Schoolbook L" font-size="2.4696" text-anchor="start" fill="currentColor">
<tspan>
come</tspan>
</text>
<path transform="translate(2.6310, 10.0500) scale(0.0040, -0.0040)" d="M165 36l120 98c3 2 6 4 9 4s7 -2 10 -4l20 -16c3 -3 5 -8 5 -12s-2 -8 -5 -11l-116 -95l116 -95c3 -3 5 -7 5 -11s-2 -9 -5 -12l-20 -16c-3 -2 -7 -4 -10 -4s-6 2 -9 4l-120 98l-121 -98c-3 -2 -6 -4 -9 -4s-7 2 -10 4l-20 16c-3 3 -5 8 -5 12s2 8 5 11l116 95l-116 95
c-3 3 -5 7 -5 11s2 9 5 12l20 16c3 2 7 4 10 4s6 -2 9 -4z" fill="currentColor"/>
<text transform="translate(1.1381, 14.0500)" font-family="Century Schoolbook L" font-size="2.4696" text-anchor="start" fill="currentColor">
<tspan>
and</tspan>
</text>
<text transform="translate(13.8348, 14.0500)" font-family="Century Schoolbook L" font-size="2.4696" text-anchor="start" fill="currentColor">
<tspan>
for</tspan>
</text>
<path transform="translate(14.7473, 10.0500) scale(0.0040, -0.0040)" d="M165 36l120 98c3 2 6 4 9 4s7 -2 10 -4l20 -16c3 -3 5 -8 5 -12s-2 -8 -5 -11l-116 -95l116 -95c3 -3 5 -7 5 -11s-2 -9 -5 -12l-20 -16c-3 -2 -7 -4 -10 -4s-6 2 -9 4l-120 98l-121 -98c-3 -2 -6 -4 -9 -4s-7 2 -10 4l-20 16c-3 3 -5 8 -5 12s2 8 5 11l116 95l-116 95
c-3 3 -5 7 -5 11s2 9 5 12l20 16c3 2 7 4 10 4s6 -2 9 -4z" fill="currentColor"/>
<text transform="translate(6.9402, 14.0500)" font-family="Century Schoolbook L" font-size="2.4696" text-anchor="start" fill="currentColor">
<tspan>
hope</tspan>
</text>
<path transform="translate(8.7798, 10.0500) scale(0.0040, -0.0040)" d="M10 -263c-6 0 -10 6 -10 11c0 2 0 3 1 5l309 505c2 3 6 5 9 5h100c6 0 10 -6 10 -11c0 -2 -1 -3 -2 -5l-308 -505c-2 -3 -6 -5 -9 -5h-100z" fill="currentColor"/>
</svg>
