<svg xmlns="http://www.w3.org/2000/svg" xmlns:xlink="http://www.w3.org/1999/xlink" version="1.2" width="177.80mm" height="21.09mm" viewBox="0 0 101.1780 12.0000">
<!-- Page: 1/1 -->
<text transform="translate(1.1381, -0.0000)" font-family="Century Schoolbook L" font-size="2.2001" text-anchor="start" fill="currentColor">
<tspan>
 </tspan>
</text>
<rect transform="translate(96.0256, 4.7760)" x="0.0000" y="-2.0000" width="0.6000" height="4.0000" ry="0.0000" fill="currentColor"/>
<rect transform="translate(95.5356, 4.7760)" x="0.0000" y="-2.0000" width="0.1900" height="4.0000" ry="0.0000" fill="currentColor"/>
<rect transform="translate(33.8651, 4.7760)" x="0.0000" y="-2.0000" width="0.1900" height="4.0000" ry="0.0000" fill="currentColor"/>
<rect transform="translate(53.7699, 4.7760)" x="0.0000" y="-2.0000" width="0.1900" height="4.0000" ry="0.0000" fill="currentColor"/>
<rect transform="translate(79.1536, 4.7760)" x="0.0000" y="-2.0000" width="0.1900" height="4.0000" ry="0.0000" fill="currentColor"/>
<line transform="translate(1.1381, 6.7760)" stroke-linejoin="round" stroke-linecap="round" stroke-width="0.1000" stroke="currentColor" x1="0.0500" y1="-0.0000" x2="95.4374" y2="-0.0000"/>
<line transform="translate(1.1381, 5.7760)" stroke-linejoin="round" stroke-linecap="round" stroke-width="0.1000" stroke="currentColor" x1="0.0500" y1="-0.0000" x2="95.4374" y2="-0.0000"/>
<line transform="translate(1.1381, 4.7760)" stroke-linejoin="round" stroke-linecap="round" stroke-width="0.1000" stroke="currentColor" x1="0.0500" y1="-0.0000" x2="95.4374" y2="-0.0000"/>
<line transform="translate(1.1381, 3.7760)" stroke-linejoin="round" stroke-linecap="round" stroke-width="0.1000" stroke="currentColor" x1="0.0500" y1="-0.0000" x2="95.4374" y2="-0.0000"/>
<line transform="translate(1.1381, 2.7760)" stroke-linejoin="round" stroke-linecap="round" stroke-width="0.1000" stroke="currentColor" x1="0.0500" y1="-0.0000" x2="95.4374" y2="-0.0000"/>
<path transform="translate(68.0854, 5.2760) scale(0.0040, -0.0040)" d="M220 138c56 0 109 -29 109 -91c0 -72 -56 -121 -103 -149c-36 -21 -76 -36 -117 -36c-56 0 -109 29 -109 91c0 72 56 121 103 149c36 21 76 36 117 36z" fill="currentColor"/>
<text transform="translate(67.2412, 10.4189)" font-family="Century Schoolbook L" font-size="2.4696" text-anchor="start" fill="currentColor">
<tspan>
Re</tspan>
</text>
<rect transform="translate(69.3366, 4.7760)" x="-0.0650" y="-3.0000" width="0.1300" height="3.3122" ry="0.0400" fill="currentColor"/>
<path transform="translate(74.2489, 4.7760) scale(0.0040, -0.0040)" d="M220 138c56 0 109 -29 109 -91c0 -72 -56 -121 -103 -149c-36 -21 -76 -36 -117 -36c-56 0 -109 29 -109 91c0 72 56 121 103 149c36 21 76 36 117 36z" fill="currentColor"/>
<text transform="translate(71.8682, 10.4189)" font-family="Century Schoolbook L" font-size="2.4696" text-anchor="start" fill="currentColor">
<tspan>
deem</tspan>
</text>
<rect transform="translate(74.3139, 4.7760)" x="-0.0650" y="0.1878" width="0.1300" height="3.1455" ry="0.0400" fill="currentColor"/>
<rect transform="translate(82.1039, 4.7760)" x="-0.0650" y="-3.0000" width="0.1300" height="3.2386" ry="0.0400" fill="currentColor"/>
<path transform="translate(80.7789, 5.2760) scale(0.0040, -0.0040)" d="M315 65c0 24 -21 41 -42 41c-4 0 -8 0 -12 -1c-31 -9 -77 -40 -114 -64s-84 -53 -104 -78c-7 -8 -11 -18 -11 -28c0 -24 21 -41 42 -41c4 0 8 0 12 1c31 9 78 40 115 64s84 53 104 78c7 8 10 18 10 28zM264 137c47 0 83 -21 83 -72c0 -19 -4 -37 -10 -56
c-12 -38 -32 -74 -65 -96c-54 -36 -113 -51 -188 -51c-47 0 -84 22 -84 73c0 19 5 37 11 56c12 38 31 74 64 96c54 36 114 50 189 50z" fill="currentColor"/>
<text transform="translate(79.9716, 10.4189)" font-family="Century Schoolbook L" font-size="2.4696" text-anchor="start" fill="currentColor">
<tspan>
er,</tspan>
</text>
<path transform="translate(55.2634, 6.2760) scale(0.0040, -0.0040)" d="M220 138c56 0 109 -29 109 -91c0 -72 -56 -121 -103 -149c-36 -21 -76 -36 -117 -36c-56 0 -109 29 -109 91c0 72 56 121 103 149c36 21 76 36 117 36z" fill="currentColor"/>
<text transform="translate(54.8289, 10.4189)" font-family="Century Schoolbook L" font-size="2.4696" text-anchor="start" fill="currentColor">
<tspan>
to</tspan>
</text>
<rect transform="translate(56.5146, 4.7760)" x="-0.0650" y="-2.0000" width="0.1300" height="3.3122" ry="0.0400" fill="currentColor"/>
<path transform="translate(61.4696, 5.7760) scale(0.0040, -0.0040)" d="M220 138c56 0 109 -29 109 -91c0 -72 -56 -121 -103 -149c-36 -21 -76 -36 -117 -36c-56 0 -109 29 -109 91c0 72 56 121 103 149c36 21 76 36 117 36z" fill="currentColor"/>
<text transform="translate(58.9865, 10.4189)" font-family="Century Schoolbook L" font-size="2.4696" text-anchor="start" fill="currentColor">
<tspan>
Thee,</tspan>
</text>
<rect transform="translate(62.7207, 4.7760)" x="-0.0650" y="-2.5000" width="0.1300" height="3.3122" ry="0.0400" fill="currentColor"/>
<rect transform="translate(78.6287, 10.4189)" x="0.0000" y="-0.5500" width="0.6600" height="0.1300" ry="0.0400" fill="currentColor"/>
<rect transform="translate(70.7270, 10.4189)" x="0.0000" y="-0.5500" width="0.6600" height="0.1300" ry="0.0400" fill="currentColor"/>
<rect transform="translate(45.0950, 10.4189)" x="0.0000" y="-0.5500" width="0.6600" height="0.1300" ry="0.0400" fill="currentColor"/>
<polygon transform="translate(22.1541, 2.5860)" stroke-linejoin="round" stroke-linecap="round" stroke-width="0.0800" fill="currentColor" stroke="currentColor" points="3.6993 -0.0100 3.6993 0.3900 0.0400 0.2000 0.0400 -0.2000"/>
<rect transform="translate(19.5352, 10.4189)" x="0.0000" y="-0.5500" width="0.6600" height="0.1300" ry="0.0400" fill="currentColor"/>
<path transform="translate(88.4536, 5.7760) scale(0.0040, -0.0040)" d="M315 65c0 24 -21 41 -42 41c-4 0 -8 0 -12 -1c-31 -9 -77 -40 -114 -64s-84 -53 -104 -78c-7 -8 -11 -18 -11 -28c0 -24 21 -41 42 -41c4 0 8 0 12 1c31 9 78 40 115 64s84 53 104 78c7 8 10 18 10 28zM264 137c47 0 83 -21 83 -72c0 -19 -4 -37 -10 -56
c-12 -38 -32 -74 -65 -96c-54 -36 -113 -51 -188 -51c-47 0 -84 22 -84 73c0 19 5 37 11 56c12 38 31 74 64 96c54 36 114 50 189 50z" fill="currentColor"/>
<text transform="translate(86.0245, 10.4189)" font-family="Century Schoolbook L" font-size="2.4696" text-anchor="start" fill="currentColor">
<tspan>
King!</tspan>
</text>
<rect transform="translate(89.7786, 4.7760)" x="-0.0650" y="-2.5000" width="0.1300" height="3.2386" ry="0.0400" fill="currentColor"/>
<path transform="translate(16.4313, 5.2760) scale(0.0040, -0.0040)" d="M220 138c56 0 109 -29 109 -91c0 -72 -56 -121 -103 -149c-36 -21 -76 -36 -117 -36c-56 0 -109 29 -109 91c0 72 56 121 103 149c36 21 76 36 117 36z" fill="currentColor"/>
<text transform="translate(15.4164, 10.4189)" font-family="Century Schoolbook L" font-size="2.4696" text-anchor="start" fill="currentColor">
<tspan>
glo</tspan>
</text>
<rect transform="translate(17.6825, 4.7760)" x="-0.0650" y="-3.0000" width="0.1300" height="3.3122" ry="0.0400" fill="currentColor"/>
<path transform="translate(20.9679, 5.2760) scale(0.0040, -0.0040)" d="M220 138c56 0 109 -29 109 -91c0 -72 -56 -121 -103 -149c-36 -21 -76 -36 -117 -36c-56 0 -109 29 -109 91c0 72 56 121 103 149c36 21 76 36 117 36z" fill="currentColor"/>
<text transform="translate(20.9679, 10.4189)" font-family="Century Schoolbook L" font-size="2.4696" text-anchor="start" fill="currentColor">
<tspan>
ry,</tspan>
</text>
<rect transform="translate(22.2191, 4.7760)" x="-0.0650" y="-2.1867" width="0.1300" height="2.4989" ry="0.0400" fill="currentColor"/>
<path transform="translate(24.5772, 5.7760) scale(0.0040, -0.0040)" d="M220 138c56 0 109 -29 109 -91c0 -72 -56 -121 -103 -149c-36 -21 -76 -36 -117 -36c-56 0 -109 29 -109 91c0 72 56 121 103 149c36 21 76 36 117 36z" fill="currentColor"/>
<rect transform="translate(25.8284, 4.7760)" x="-0.0650" y="-2.0033" width="0.1300" height="2.8155" ry="0.0400" fill="currentColor"/>
<path transform="translate(28.1865, 6.2760) scale(0.0040, -0.0040)" d="M220 138c56 0 109 -29 109 -91c0 -72 -56 -121 -103 -149c-36 -21 -76 -36 -117 -36c-56 0 -109 29 -109 91c0 72 56 121 103 149c36 21 76 36 117 36z" fill="currentColor"/>
<path transform="translate(11.1129, 5.2760) scale(0.0040, -0.0040)" d="M220 138c56 0 109 -29 109 -91c0 -72 -56 -121 -103 -149c-36 -21 -76 -36 -117 -36c-56 0 -109 29 -109 91c0 72 56 121 103 149c36 21 76 36 117 36z" fill="currentColor"/>
<path transform="translate(1.9381, 5.7760) scale(0.0040, -0.0040)" d="M376 262c4 0 9 1 13 1c155 0 256 -128 256 -261c0 -76 -33 -154 -107 -210c-22 -17 -47 -28 -73 -36c3 -35 5 -70 5 -105c0 -19 -1 -39 -2 -58c-7 -120 -90 -228 -208 -228c-108 0 -195 88 -195 197c0 58 53 103 112 103c54 0 95 -47 95 -103c0 -52 -43 -95 -95 -95
c-11 0 -21 2 -31 6c26 -39 68 -65 117 -65c96 0 157 92 163 191c1 18 2 37 2 55c0 31 -1 61 -4 92c-29 -5 -58 -8 -89 -8c-188 0 -333 172 -333 374c0 177 131 306 248 441c-19 62 -37 125 -45 190c-6 52 -7 104 -7 156c0 115 55 224 149 292c3 2 7 3 10 3c4 0 7 0 10 -3
c71 -84 133 -245 133 -358c0 -143 -86 -255 -180 -364c21 -68 39 -138 56 -207zM461 -203c68 24 113 95 113 164c0 90 -66 179 -173 190c24 -116 46 -231 60 -354zM74 28c0 -135 129 -247 264 -247c28 0 55 2 82 6c-14 127 -37 245 -63 364c-79 -8 -124 -61 -124 -119
c0 -44 25 -91 81 -123c5 -5 7 -10 7 -15c0 -11 -10 -22 -22 -22c-3 0 -6 1 -9 2c-80 43 -117 115 -117 185c0 88 58 174 160 197c-14 58 -29 117 -46 175c-107 -121 -213 -243 -213 -403zM408 1045c-99 -48 -162 -149 -162 -259c0 -74 18 -133 36 -194
c80 97 146 198 146 324c0 55 -4 79 -20 129z" fill="currentColor"/>
<path transform="translate(5.5581, 4.7760) scale(0.0040, -0.0040)" d="M27 41l-1 -66v-11c0 -22 1 -44 4 -66c45 38 93 80 93 139c0 33 -14 67 -43 67c-31 0 -52 -30 -53 -63zM-15 -138l-12 595c8 5 18 8 27 8s19 -3 27 -8l-7 -345c25 21 58 34 91 34c52 0 89 -48 89 -102c0 -80 -86 -117 -147 -169c-15 -13 -24 -38 -45 -38
c-13 0 -23 11 -23 25z" fill="currentColor"/>
<path transform="translate(7.5081, 6.7905) scale(0.0040, -0.0040)" d="M204 307c22 14 44 29 60 50c11 15 19 33 27 50c2 4 5 6 9 6c6 0 13 -5 13 -14v-245h72c10 0 15 -7 15 -14s-5 -15 -15 -15h-72v-8c0 -48 27 -94 72 -94c8 0 12 -5 12 -11s-4 -12 -12 -12c-44 0 -87 13 -131 13s-87 -13 -131 -13c-8 0 -12 6 -12 12s4 11 12 11
c45 0 73 46 73 94v8h-167c-23 0 -31 14 -31 23c0 3 1 5 2 6c80 93 138 207 138 330c0 9 6 16 13 16h3c23 -7 47 -13 71 -13s48 6 71 13c2 1 3 1 5 1c11 0 18 -10 12 -17l-284 -330h167v131c0 8 1 17 8 22z" fill="currentColor"/>
<path transform="translate(7.5081, 4.7760) scale(0.0040, -0.0040)" d="M204 307c22 14 44 29 60 50c11 15 19 33 27 50c2 4 5 6 9 6c6 0 13 -5 13 -14v-245h72c10 0 15 -7 15 -14s-5 -15 -15 -15h-72v-8c0 -48 27 -94 72 -94c8 0 12 -5 12 -11s-4 -12 -12 -12c-44 0 -87 13 -131 13s-87 -13 -131 -13c-8 0 -12 6 -12 12s4 11 12 11
c45 0 73 46 73 94v8h-167c-23 0 -31 14 -31 23c0 3 1 5 2 6c80 93 138 207 138 330c0 9 6 16 13 16h3c23 -7 47 -13 71 -13s48 6 71 13c2 1 3 1 5 1c11 0 18 -10 12 -17l-284 -330h167v131c0 8 1 17 8 22z" fill="currentColor"/>
<text transform="translate(10.0979, 10.4189)" font-family="Century Schoolbook L" font-size="2.4696" text-anchor="start" fill="currentColor">
<tspan>
All</tspan>
</text>
<rect transform="translate(12.3640, 4.7760)" x="-0.0650" y="-3.0000" width="0.1300" height="3.3122" ry="0.0400" fill="currentColor"/>
<path transform="translate(41.8388, 4.7760) scale(0.0040, -0.0040)" d="M220 138c56 0 109 -29 109 -91c0 -72 -56 -121 -103 -149c-36 -21 -76 -36 -117 -36c-56 0 -109 29 -109 91c0 72 56 121 103 149c36 21 76 36 117 36z" fill="currentColor"/>
<text transform="translate(40.3800, 10.4189)" font-family="Century Schoolbook L" font-size="2.4696" text-anchor="start" fill="currentColor">
<tspan>
hon</tspan>
</text>
<rect transform="translate(41.9038, 4.7760)" x="-0.0650" y="0.1878" width="0.1300" height="3.1455" ry="0.0400" fill="currentColor"/>
<path transform="translate(47.0435, 4.2760) scale(0.0040, -0.0040)" d="M315 65c0 24 -21 41 -42 41c-4 0 -8 0 -12 -1c-31 -9 -77 -40 -114 -64s-84 -53 -104 -78c-7 -8 -11 -18 -11 -28c0 -24 21 -41 42 -41c4 0 8 0 12 1c31 9 78 40 115 64s84 53 104 78c7 8 10 18 10 28zM264 137c47 0 83 -21 83 -72c0 -19 -4 -37 -10 -56
c-12 -38 -32 -74 -65 -96c-54 -36 -113 -51 -188 -51c-47 0 -84 22 -84 73c0 19 5 37 11 56c12 38 31 74 64 96c54 36 114 50 189 50z" fill="currentColor"/>
<text transform="translate(46.2362, 10.4189)" font-family="Century Schoolbook L" font-size="2.4696" text-anchor="start" fill="currentColor">
<tspan>
or,</tspan>
</text>
<rect transform="translate(47.1085, 4.7760)" x="-0.0650" y="-0.2386" width="0.1300" height="3.2386" ry="0.0400" fill="currentColor"/>
<rect transform="translate(29.4377, 4.7760)" x="-0.0650" y="-2.0000" width="0.1300" height="3.3122" ry="0.0400" fill="currentColor"/>
<path transform="translate(35.5985, 5.2760) scale(0.0040, -0.0040)" d="M220 138c56 0 109 -29 109 -91c0 -72 -56 -121 -103 -149c-36 -21 -76 -36 -117 -36c-56 0 -109 29 -109 91c0 72 56 121 103 149c36 21 76 36 117 36z" fill="currentColor"/>
<text transform="translate(34.1056, 10.4189)" font-family="Century Schoolbook L" font-size="2.4696" text-anchor="start" fill="currentColor">
<tspan>
and</tspan>
</text>
<rect transform="translate(36.8497, 4.7760)" x="-0.0650" y="-3.0000" width="0.1300" height="3.3122" ry="0.0400" fill="currentColor"/>
<text transform="translate(25.9595, 10.4189)" font-family="Century Schoolbook L" font-size="2.4696" text-anchor="start" fill="currentColor">
<tspan>
laud,</tspan>
</text>
</svg>
