<svg xmlns="http://www.w3.org/2000/svg" xmlns:xlink="http://www.w3.org/1999/xlink" version="1.2" width="177.80mm" height="28.12mm" viewBox="0 0 101.1780 16.0000">
<!-- Page: 1/1 -->
<text transform="translate(1.1381, -0.0000)" font-family="Century Schoolbook L" font-size="2.2001" text-anchor="start" fill="currentColor">
<tspan>
 </tspan>
</text>
<text transform="translate(17.5743, 6.0500)" font-family="Century Schoolbook L" font-size="2.4696" text-anchor="start" fill="currentColor">
<tspan>
Lord's</tspan>
</text>
<path transform="translate(26.8838, 2.0500) scale(0.0040, -0.0040)" d="M165 36l120 98c3 2 6 4 9 4s7 -2 10 -4l20 -16c3 -3 5 -8 5 -12s-2 -8 -5 -11l-116 -95l116 -95c3 -3 5 -7 5 -11s-2 -9 -5 -12l-20 -16c-3 -2 -7 -4 -10 -4s-6 2 -9 4l-120 98l-121 -98c-3 -2 -6 -4 -9 -4s-7 2 -10 4l-20 16c-3 3 -5 8 -5 12s2 8 5 11l116 95l-116 95
c-3 3 -5 7 -5 11s2 9 5 12l20 16c3 2 7 4 10 4s6 -2 9 -4z" fill="currentColor"/>
<text transform="translate(26.1078, 6.0500)" font-family="Century Schoolbook L" font-size="2.4696" text-anchor="start" fill="currentColor">
<tspan>
an</tspan>
</text>
<path transform="translate(32.3546, 2.0500) scale(0.0040, -0.0040)" d="M10 -263c-6 0 -10 6 -10 11c0 2 0 3 1 5l309 505c2 3 6 5 9 5h100c6 0 10 -6 10 -11c0 -2 -1 -3 -2 -5l-308 -505c-2 -3 -6 -5 -9 -5h-100z" fill="currentColor"/>
<rect transform="translate(29.6459, 6.0500)" x="0.0000" y="-0.5500" width="0.6600" height="0.1300" ry="0.0400" fill="currentColor"/>
<rect transform="translate(36.1186, 6.0500)" x="0.0000" y="-0.5500" width="0.6600" height="0.1300" ry="0.0400" fill="currentColor"/>
<text transform="translate(37.4486, 6.0500)" font-family="Century Schoolbook L" font-size="2.4696" text-anchor="start" fill="currentColor">
<tspan>
ed,</tspan>
</text>
<path transform="translate(38.4636, 2.0500) scale(0.0040, -0.0040)" d="M165 36l120 98c3 2 6 4 9 4s7 -2 10 -4l20 -16c3 -3 5 -8 5 -12s-2 -8 -5 -11l-116 -95l116 -95c3 -3 5 -7 5 -11s-2 -9 -5 -12l-20 -16c-3 -2 -7 -4 -10 -4s-6 2 -9 4l-120 98l-121 -98c-3 -2 -6 -4 -9 -4s-7 2 -10 4l-20 16c-3 3 -5 8 -5 12s2 8 5 11l116 95l-116 95
c-3 3 -5 7 -5 11s2 9 5 12l20 16c3 2 7 4 10 4s6 -2 9 -4z" fill="currentColor"/>
<text transform="translate(30.9759, 6.0500)" font-family="Century Schoolbook L" font-size="2.4696" text-anchor="start" fill="currentColor">
<tspan>
oint</tspan>
</text>
<path transform="translate(2.9725, 2.0500) scale(0.0040, -0.0040)" d="M165 36l120 98c3 2 6 4 9 4s7 -2 10 -4l20 -16c3 -3 5 -8 5 -12s-2 -8 -5 -11l-116 -95l116 -95c3 -3 5 -7 5 -11s-2 -9 -5 -12l-20 -16c-3 -2 -7 -4 -10 -4s-6 2 -9 4l-120 98l-121 -98c-3 -2 -6 -4 -9 -4s-7 2 -10 4l-20 16c-3 3 -5 8 -5 12s2 8 5 11l116 95l-116 95
c-3 3 -5 7 -5 11s2 9 5 12l20 16c3 2 7 4 10 4s6 -2 9 -4z" fill="currentColor"/>
<text transform="translate(1.1381, 6.0500)" font-family="Century Schoolbook L" font-size="2.4696" text-anchor="start" fill="currentColor">
<tspan>
Hail</tspan>
</text>
<path transform="translate(8.2725, 2.0500) scale(0.0040, -0.0040)" d="M10 -263c-6 0 -10 6 -10 11c0 2 0 3 1 5l309 505c2 3 6 5 9 5h100c6 0 10 -6 10 -11c0 -2 -1 -3 -2 -5l-308 -505c-2 -3 -6 -5 -9 -5h-100z" fill="currentColor"/>
<text transform="translate(8.0375, 6.0500)" font-family="Century Schoolbook L" font-size="2.4696" text-anchor="start" fill="currentColor">
<tspan>
to</tspan>
</text>
<path transform="translate(20.2334, 2.0500) scale(0.0040, -0.0040)" d="M10 -263c-6 0 -10 6 -10 11c0 2 0 3 1 5l309 505c2 3 6 5 9 5h100c6 0 10 -6 10 -11c0 -2 -1 -3 -2 -5l-308 -505c-2 -3 -6 -5 -9 -5h-100z" fill="currentColor"/>
<text transform="translate(12.3868, 6.0500)" font-family="Century Schoolbook L" font-size="2.4696" text-anchor="start" fill="currentColor">
<tspan>
the</tspan>
</text>
<path transform="translate(13.5725, 2.0500) scale(0.0040, -0.0040)" d="M165 36l120 98c3 2 6 4 9 4s7 -2 10 -4l20 -16c3 -3 5 -8 5 -12s-2 -8 -5 -11l-116 -95l116 -95c3 -3 5 -7 5 -11s-2 -9 -5 -12l-20 -16c-3 -2 -7 -4 -10 -4s-6 2 -9 4l-120 98l-121 -98c-3 -2 -6 -4 -9 -4s-7 2 -10 4l-20 16c-3 3 -5 8 -5 12s2 8 5 11l116 95l-116 95
c-3 3 -5 7 -5 11s2 9 5 12l20 16c3 2 7 4 10 4s6 -2 9 -4z" fill="currentColor"/>
<path transform="translate(22.7106, 10.0500) scale(0.0040, -0.0040)" d="M10 -263c-6 0 -10 6 -10 11c0 2 0 3 1 5l309 505c2 3 6 5 9 5h100c6 0 10 -6 10 -11c0 -2 -1 -3 -2 -5l-308 -505c-2 -3 -6 -5 -9 -5h-100z" fill="currentColor"/>
<text transform="translate(20.5807, 14.0500)" font-family="Century Schoolbook L" font-size="2.4696" text-anchor="start" fill="currentColor">
<tspan>
great</tspan>
</text>
<path transform="translate(29.0586, 10.0500) scale(0.0040, -0.0040)" d="M165 36l120 98c3 2 6 4 9 4s7 -2 10 -4l20 -16c3 -3 5 -8 5 -12s-2 -8 -5 -11l-116 -95l116 -95c3 -3 5 -7 5 -11s-2 -9 -5 -12l-20 -16c-3 -2 -7 -4 -10 -4s-6 2 -9 4l-120 98l-121 -98c-3 -2 -6 -4 -9 -4s-7 2 -10 4l-20 16c-3 3 -5 8 -5 12s2 8 5 11l116 95l-116 95
c-3 3 -5 7 -5 11s2 9 5 12l20 16c3 2 7 4 10 4s6 -2 9 -4z" fill="currentColor"/>
<text transform="translate(28.5558, 14.0500)" font-family="Century Schoolbook L" font-size="2.4696" text-anchor="start" fill="currentColor">
<tspan>
er</tspan>
</text>
<path transform="translate(34.3586, 10.0500) scale(0.0040, -0.0040)" d="M10 -263c-6 0 -10 6 -10 11c0 2 0 3 1 5l309 505c2 3 6 5 9 5h100c6 0 10 -6 10 -11c0 -2 -1 -3 -2 -5l-308 -505c-2 -3 -6 -5 -9 -5h-100z" fill="currentColor"/>
<text transform="translate(33.2871, 14.0500)" font-family="Century Schoolbook L" font-size="2.4696" text-anchor="start" fill="currentColor">
<tspan>
son</tspan>
</text>
<rect transform="translate(27.2258, 14.0500)" x="0.0000" y="-0.5500" width="0.6600" height="0.1300" ry="0.0400" fill="currentColor"/>
<rect transform="translate(13.8925, 14.0500)" x="0.0000" y="-0.5500" width="0.6600" height="0.1300" ry="0.0400" fill="currentColor"/>
<path transform="translate(3.4676, 10.0500) scale(0.0040, -0.0040)" d="M165 36l120 98c3 2 6 4 9 4s7 -2 10 -4l20 -16c3 -3 5 -8 5 -12s-2 -8 -5 -11l-116 -95l116 -95c3 -3 5 -7 5 -11s-2 -9 -5 -12l-20 -16c-3 -2 -7 -4 -10 -4s-6 2 -9 4l-120 98l-121 -98c-3 -2 -6 -4 -9 -4s-7 2 -10 4l-20 16c-3 3 -5 8 -5 12s2 8 5 11l116 95l-116 95
c-3 3 -5 7 -5 11s2 9 5 12l20 16c3 2 7 4 10 4s6 -2 9 -4z" fill="currentColor"/>
<text transform="translate(1.1381, 14.0500)" font-family="Century Schoolbook L" font-size="2.4696" text-anchor="start" fill="currentColor">
<tspan>
great</tspan>
</text>
<path transform="translate(10.0602, 10.0500) scale(0.0040, -0.0040)" d="M10 -263c-6 0 -10 6 -10 11c0 2 0 3 1 5l309 505c2 3 6 5 9 5h100c6 0 10 -6 10 -11c0 -2 -1 -3 -2 -5l-308 -505c-2 -3 -6 -5 -9 -5h-100z" fill="currentColor"/>
<text transform="translate(8.6132, 14.0500)" font-family="Century Schoolbook L" font-size="2.4696" text-anchor="start" fill="currentColor">
<tspan>
Dav</tspan>
</text>
<text transform="translate(15.2225, 14.0500)" font-family="Century Schoolbook L" font-size="2.4696" text-anchor="start" fill="currentColor">
<tspan>
id's</tspan>
</text>
<path transform="translate(16.4935, 10.0500) scale(0.0040, -0.0040)" d="M165 36l120 98c3 2 6 4 9 4s7 -2 10 -4l20 -16c3 -3 5 -8 5 -12s-2 -8 -5 -11l-116 -95l116 -95c3 -3 5 -7 5 -11s-2 -9 -5 -12l-20 -16c-3 -2 -7 -4 -10 -4s-6 2 -9 4l-120 98l-121 -98c-3 -2 -6 -4 -9 -4s-7 2 -10 4l-20 16c-3 3 -5 8 -5 12s2 8 5 11l116 95l-116 95
c-3 3 -5 7 -5 11s2 9 5 12l20 16c3 2 7 4 10 4s6 -2 9 -4z" fill="currentColor"/>
</svg>
