<svg xmlns="http://www.w3.org/2000/svg" xmlns:xlink="http://www.w3.org/1999/xlink" version="1.2" width="177.80mm" height="28.12mm" viewBox="0 0 101.1780 16.0000">
<!-- Page: 1/1 -->
<text transform="translate(1.1381, -0.0000)" font-family="Century Schoolbook L" font-size="2.2001" text-anchor="start" fill="currentColor">
<tspan>
 </tspan>
</text>
<text transform="translate(40.2424, 6.0500)" font-family="Century Schoolbook L" font-size="2.4696" text-anchor="start" fill="currentColor">
<tspan>
up</tspan>
</text>
<path transform="translate(41.0524, 2.0500) scale(0.0040, -0.0040)" d="M165 36l120 98c3 2 6 4 9 4s7 -2 10 -4l20 -16c3 -3 5 -8 5 -12s-2 -8 -5 -11l-116 -95l116 -95c3 -3 5 -7 5 -11s-2 -9 -5 -12l-20 -16c-3 -2 -7 -4 -10 -4s-6 2 -9 4l-120 98l-121 -98c-3 -2 -6 -4 -9 -4s-7 2 -10 4l-20 16c-3 3 -5 8 -5 12s2 8 5 11l116 95l-116 95
c-3 3 -5 7 -5 11s2 9 5 12l20 16c3 2 7 4 10 4s6 -2 9 -4z" fill="currentColor"/>
<text transform="translate(31.8454, 6.0500)" font-family="Century Schoolbook L" font-size="2.4696" text-anchor="start" fill="currentColor">
<tspan>
power</tspan>
</text>
<path transform="translate(34.4362, 2.0500) scale(0.0040, -0.0040)" d="M10 -263c-6 0 -10 6 -10 11c0 2 0 3 1 5l309 505c2 3 6 5 9 5h100c6 0 10 -6 10 -11c0 -2 -1 -3 -2 -5l-308 -505c-2 -3 -6 -5 -9 -5h-100z" fill="currentColor"/>
<text transform="translate(23.3460, 6.0500)" font-family="Century Schoolbook L" font-size="2.4696" text-anchor="start" fill="currentColor">
<tspan>
whose</tspan>
</text>
<path transform="translate(26.1876, 2.0500) scale(0.0040, -0.0040)" d="M165 36l120 98c3 2 6 4 9 4s7 -2 10 -4l20 -16c3 -3 5 -8 5 -12s-2 -8 -5 -11l-116 -95l116 -95c3 -3 5 -7 5 -11s-2 -9 -5 -12l-20 -16c-3 -2 -7 -4 -10 -4s-6 2 -9 4l-120 98l-121 -98c-3 -2 -6 -4 -9 -4s-7 2 -10 4l-20 16c-3 3 -5 8 -5 12s2 8 5 11l116 95l-116 95
c-3 3 -5 7 -5 11s2 9 5 12l20 16c3 2 7 4 10 4s6 -2 9 -4z" fill="currentColor"/>
<rect transform="translate(4.3404, 6.0500)" x="0.0000" y="-0.5500" width="0.6600" height="0.1300" ry="0.0400" fill="currentColor"/>
<rect transform="translate(10.1046, 6.0500)" x="0.0000" y="-0.5500" width="0.6600" height="0.1300" ry="0.0400" fill="currentColor"/>
<rect transform="translate(43.8487, 6.0500)" x="0.0000" y="-0.5500" width="0.6600" height="0.1300" ry="0.0400" fill="currentColor"/>
<text transform="translate(45.1787, 6.0500)" font-family="Century Schoolbook L" font-size="2.4696" text-anchor="start" fill="currentColor">
<tspan>
holds</tspan>
</text>
<path transform="translate(47.3598, 2.0500) scale(0.0040, -0.0040)" d="M10 -263c-6 0 -10 6 -10 11c0 2 0 3 1 5l309 505c2 3 6 5 9 5h100c6 0 10 -6 10 -11c0 -2 -1 -3 -2 -5l-308 -505c-2 -3 -6 -5 -9 -5h-100z" fill="currentColor"/>
<text transform="translate(6.1569, 6.0500)" font-family="Century Schoolbook L" font-size="2.4696" text-anchor="start" fill="currentColor">
<tspan>
ter</tspan>
</text>
<path transform="translate(6.9381, 2.0500) scale(0.0040, -0.0040)" d="M10 -263c-6 0 -10 6 -10 11c0 2 0 3 1 5l309 505c2 3 6 5 9 5h100c6 0 10 -6 10 -11c0 -2 -1 -3 -2 -5l-308 -505c-2 -3 -6 -5 -9 -5h-100z" fill="currentColor"/>
<text transform="translate(1.4085, 6.0500)" font-family="Century Schoolbook L" font-size="2.4696" text-anchor="start" fill="currentColor">
<tspan>
E</tspan>
</text>
<path transform="translate(1.6381, 2.0500) scale(0.0040, -0.0040)" d="M165 36l120 98c3 2 6 4 9 4s7 -2 10 -4l20 -16c3 -3 5 -8 5 -12s-2 -8 -5 -11l-116 -95l116 -95c3 -3 5 -7 5 -11s-2 -9 -5 -12l-20 -16c-3 -2 -7 -4 -10 -4s-6 2 -9 4l-120 98l-121 -98c-3 -2 -6 -4 -9 -4s-7 2 -10 4l-20 16c-3 3 -5 8 -5 12s2 8 5 11l116 95l-116 95
c-3 3 -5 7 -5 11s2 9 5 12l20 16c3 2 7 4 10 4s6 -2 9 -4z" fill="currentColor"/>
<path transform="translate(12.6032, 2.0500) scale(0.0040, -0.0040)" d="M165 36l120 98c3 2 6 4 9 4s7 -2 10 -4l20 -16c3 -3 5 -8 5 -12s-2 -8 -5 -11l-116 -95l116 -95c3 -3 5 -7 5 -11s-2 -9 -5 -12l-20 -16c-3 -2 -7 -4 -10 -4s-6 2 -9 4l-120 98l-121 -98c-3 -2 -6 -4 -9 -4s-7 2 -10 4l-20 16c-3 3 -5 8 -5 12s2 8 5 11l116 95l-116 95
c-3 3 -5 7 -5 11s2 9 5 12l20 16c3 2 7 4 10 4s6 -2 9 -4z" fill="currentColor"/>
<text transform="translate(11.4346, 6.0500)" font-family="Century Schoolbook L" font-size="2.4696" text-anchor="start" fill="currentColor">
<tspan>
nal</tspan>
</text>
<path transform="translate(18.3594, 2.0500) scale(0.0040, -0.0040)" d="M10 -263c-6 0 -10 6 -10 11c0 2 0 3 1 5l309 505c2 3 6 5 9 5h100c6 0 10 -6 10 -11c0 -2 -1 -3 -2 -5l-308 -505c-2 -3 -6 -5 -9 -5h-100z" fill="currentColor"/>
<text transform="translate(16.5880, 6.0500)" font-family="Century Schoolbook L" font-size="2.4696" text-anchor="start" fill="currentColor">
<tspan>
God,</tspan>
</text>
<path transform="translate(23.7812, 10.0500) scale(0.0040, -0.0040)" d="M10 -263c-6 0 -10 6 -10 11c0 2 0 3 1 5l309 505c2 3 6 5 9 5h100c6 0 10 -6 10 -11c0 -2 -1 -3 -2 -5l-308 -505c-2 -3 -6 -5 -9 -5h-100z" fill="currentColor"/>
<text transform="translate(22.0610, 14.0500)" font-family="Century Schoolbook L" font-size="2.4696" text-anchor="start" fill="currentColor">
<tspan>
flam</tspan>
</text>
<path transform="translate(30.3682, 10.0500) scale(0.0040, -0.0040)" d="M165 36l120 98c3 2 6 4 9 4s7 -2 10 -4l20 -16c3 -3 5 -8 5 -12s-2 -8 -5 -11l-116 -95l116 -95c3 -3 5 -7 5 -11s-2 -9 -5 -12l-20 -16c-3 -2 -7 -4 -10 -4s-6 2 -9 4l-120 98l-121 -98c-3 -2 -6 -4 -9 -4s-7 2 -10 4l-20 16c-3 3 -5 8 -5 12s2 8 5 11l116 95l-116 95
c-3 3 -5 7 -5 11s2 9 5 12l20 16c3 2 7 4 10 4s6 -2 9 -4z" fill="currentColor"/>
<text transform="translate(29.2167, 14.0500)" font-family="Century Schoolbook L" font-size="2.4696" text-anchor="start" fill="currentColor">
<tspan>
ing</tspan>
</text>
<path transform="translate(35.7488, 10.0500) scale(0.0040, -0.0040)" d="M10 -263c-6 0 -10 6 -10 11c0 2 0 3 1 5l309 505c2 3 6 5 9 5h100c6 0 10 -6 10 -11c0 -2 -1 -3 -2 -5l-308 -505c-2 -3 -6 -5 -9 -5h-100z" fill="currentColor"/>
<text transform="translate(34.3359, 14.0500)" font-family="Century Schoolbook L" font-size="2.4696" text-anchor="start" fill="currentColor">
<tspan>
star</tspan>
</text>
<rect transform="translate(27.8867, 14.0500)" x="0.0000" y="-0.5500" width="0.6600" height="0.1300" ry="0.0400" fill="currentColor"/>
<path transform="translate(3.0066, 10.0500) scale(0.0040, -0.0040)" d="M165 36l120 98c3 2 6 4 9 4s7 -2 10 -4l20 -16c3 -3 5 -8 5 -12s-2 -8 -5 -11l-116 -95l116 -95c3 -3 5 -7 5 -11s-2 -9 -5 -12l-20 -16c-3 -2 -7 -4 -10 -4s-6 2 -9 4l-120 98l-121 -98c-3 -2 -6 -4 -9 -4s-7 2 -10 4l-20 16c-3 3 -5 8 -5 12s2 8 5 11l116 95l-116 95
c-3 3 -5 7 -5 11s2 9 5 12l20 16c3 2 7 4 10 4s6 -2 9 -4z" fill="currentColor"/>
<text transform="translate(1.1381, 14.0500)" font-family="Century Schoolbook L" font-size="2.4696" text-anchor="start" fill="currentColor">
<tspan>
both</tspan>
</text>
<text transform="translate(16.2590, 14.0500)" font-family="Century Schoolbook L" font-size="2.4696" text-anchor="start" fill="currentColor">
<tspan>
and</tspan>
</text>
<path transform="translate(17.7519, 10.0500) scale(0.0040, -0.0040)" d="M165 36l120 98c3 2 6 4 9 4s7 -2 10 -4l20 -16c3 -3 5 -8 5 -12s-2 -8 -5 -11l-116 -95l116 -95c3 -3 5 -7 5 -11s-2 -9 -5 -12l-20 -16c-3 -2 -7 -4 -10 -4s-6 2 -9 4l-120 98l-121 -98c-3 -2 -6 -4 -9 -4s-7 2 -10 4l-20 16c-3 3 -5 8 -5 12s2 8 5 11l116 95l-116 95
c-3 3 -5 7 -5 11s2 9 5 12l20 16c3 2 7 4 10 4s6 -2 9 -4z" fill="currentColor"/>
<text transform="translate(7.6913, 14.0500)" font-family="Century Schoolbook L" font-size="2.4696" text-anchor="start" fill="currentColor">
<tspan>
flower</tspan>
</text>
<path transform="translate(10.3675, 10.0500) scale(0.0040, -0.0040)" d="M10 -263c-6 0 -10 6 -10 11c0 2 0 3 1 5l309 505c2 3 6 5 9 5h100c6 0 10 -6 10 -11c0 -2 -1 -3 -2 -5l-308 -505c-2 -3 -6 -5 -9 -5h-100z" fill="currentColor"/>
</svg>
